<svg width="20" height="21" viewBox="0 0 20 21" fill="none" xmlns="http://www.w3.org/2000/svg">
    <path d="M6.66667 14.8802H13.3333M9.18141 3.01683L3.52949 7.41277C3.15168 7.70662 2.96278 7.85355 2.82669 8.03755C2.70614 8.20054 2.61633 8.38415 2.56169 8.57938C2.5 8.79977 2.5 9.03908 2.5 9.51771V15.5468C2.5 16.4802 2.5 16.947 2.68166 17.3035C2.84144 17.6171 3.09641 17.872 3.41002 18.0318C3.76654 18.2135 4.23325 18.2135 5.16667 18.2135H14.8333C15.7668 18.2135 16.2335 18.2135 16.59 18.0318C16.9036 17.872 17.1586 17.6171 17.3183 17.3035C17.5 16.947 17.5 16.4802 17.5 15.5468V9.51771C17.5 9.03908 17.5 8.79977 17.4383 8.57938C17.3837 8.38415 17.2939 8.20054 17.1733 8.03755C17.0372 7.85355 16.8483 7.70662 16.4705 7.41277L10.8186 3.01683C10.5258 2.78912 10.3794 2.67527 10.2178 2.6315C10.0752 2.59288 9.92484 2.59288 9.78221 2.6315C9.62057 2.67527 9.47418 2.78912 9.18141 3.01683Z" stroke="#667085" stroke-width="1.66667" stroke-linecap="round" stroke-linejoin="round"/>
</svg>
